<svg width="38" height="38" viewBox="0 0 38 38" fill="none" xmlns="http://www.w3.org/2000/svg">
<path fill-rule="evenodd" clip-rule="evenodd" d="M37.025 9.60737L21.5713 18.3431V36.1563L28.2506 32.4249V32.8681C28.2506 33.1295 28.0837 33.5299 27.9063 33.7888C27.3684 34.5628 27.0241 35.5051 27.0241 36.3484C27.0241 37.7898 28.029 38.3929 29.2768 37.7017C30.5259 37.0077 31.5348 35.2755 31.5348 33.8342C31.5348 32.9881 31.1905 32.4356 30.6487 32.2541C30.4699 32.1954 30.303 31.9819 30.303 31.723V31.2799L37.025 27.5219V19.755L36.6406 19.9712C36.4112 20.0993 36.1469 20.4383 36.0068 20.7292C35.5944 21.5806 34.9431 22.352 34.2092 22.7603C32.9574 23.4623 31.9485 22.8618 31.9485 21.4178C31.9485 19.9792 32.9574 18.2363 34.2092 17.5344C34.9431 17.1206 35.5944 17.1553 36.0068 17.5477C36.1469 17.6758 36.4112 17.7211 36.6406 17.5931L37.025 17.3768L37.025 9.60737Z" fill="#F6852A"/>
<path fill-rule="evenodd" clip-rule="evenodd" d="M20.585 36.1111V18.3232L5.13248 9.3566V17.0701L4.75214 16.8486C4.52666 16.7165 4.26238 16.3708 4.12624 16.0852C3.71791 15.2311 3.06932 14.4545 2.34603 14.0327C1.10224 13.3134 0.173462 13.9393 0.173462 15.3713C0.173462 16.8059 1.10224 18.5115 2.34603 19.2294C3.06932 19.6511 3.71791 19.6257 4.12624 19.2467C4.26238 19.1186 4.52666 19.0799 4.75214 19.208L5.13248 19.4296V27.1431L11.8785 31.0586V30.6155C11.8785 30.3566 11.7117 29.9563 11.5329 29.6921C10.9964 28.9074 10.6521 27.9625 10.6521 27.119C10.6521 25.6832 11.657 25.1039 12.8967 25.8246C14.1352 26.5425 15.1415 28.2908 15.1415 29.7267C15.1415 30.5648 14.7972 31.1146 14.2634 31.2748C14.0845 31.3308 13.9191 31.5417 13.9191 31.8006V32.2436L20.585 36.1111Z" fill="#F5B644"/>
<path fill-rule="evenodd" clip-rule="evenodd" d="M5.62624 8.52909L21.0746 17.5478L36.5285 8.81197L29.8078 5.00593L30.1856 4.7871C30.4124 4.655 30.8461 4.60028 31.1611 4.62424C32.1112 4.69768 33.1095 4.52819 33.8368 4.11455C35.0806 3.40321 35.0725 2.25284 33.8234 1.54151C32.5756 0.830229 30.5578 0.830229 29.3128 1.53882C28.5841 1.94991 28.2812 2.51573 28.4106 3.05756C28.4519 3.24171 28.3586 3.48462 28.133 3.61667L27.7501 3.83423L21.0707 0.012146L14.3501 3.81288L14.7331 4.03306C14.9573 4.16249 15.3883 4.21592 15.7086 4.19591C16.6575 4.12382 17.6544 4.29728 18.387 4.71501C19.6361 5.42501 19.64 6.57665 18.3963 7.28792C17.1526 7.99523 15.1334 7.98993 13.8856 7.27865C13.153 6.86226 12.846 6.29504 12.9688 5.75326C13.0115 5.57443 12.9141 5.32888 12.6833 5.19543L12.3002 4.97921L5.62624 8.52909Z" fill="#F7931D"/>
</svg>
